<?xml version="1.0" standalone="no"?>
<!DOCTYPE svg PUBLIC "-//W3C//DTD SVG 20010904//EN"
 "http://www.w3.org/TR/2001/REC-SVG-20010904/DTD/svg10.dtd">
<svg version="1.0" xmlns="http://www.w3.org/2000/svg"
 width="260.000000pt" height="260.000000pt" viewBox="0 0 260.000000 260.000000"
 preserveAspectRatio="xMidYMid meet">
<metadata>
Created by potrace 1.11, written by Peter Selinger 2001-2013
</metadata>
<g transform="translate(0.000000,260.000000) scale(0.100000,-0.100000)"
fill="#000000" stroke="none">
<path d="M1140 1883 c-84 -148 -271 -473 -415 -723 -144 -250 -296 -513 -337
-585 l-76 -130 494 -3 c272 -1 716 -1 988 0 l494 3 -35 59 c-49 85 -369 640
-406 706 -17 30 -59 104 -94 163 -35 60 -63 112 -63 118 0 5 -4 9 -10 9 -5 0
-10 4 -10 8 0 5 -48 91 -106 193 -58 101 -140 244 -182 317 -42 72 -79 132
-82 132 -3 0 -75 -120 -160 -267z"/>
</g>
</svg>
